#!OML:ASF E:\emotionWalksFemale\Project 1\Capture day 1\Session 1\Female1.ASF
:FULLY-SPECIFIED
:DEGREES
2530
root 5.79779 14.4486 39.9487 -186.567 22.4529 534.786
lowerback 6.35268 -1.04438 5.59069
upperback -1.68516 -0.278407 5.59677
thorax -5.3579 -0.0698665 2.72862
lowerneck -1.70082 9.33717 11.5705
upperneck 9.43061 14.5616 -16.9277
head 5.19323 7.20393 -6.22558
rclavicle -2.38542e-014 -1.20861e-013
rhumerus -25.2885 11.1527 -74.6245
rradius 29.8273
rwrist 38.4051
rhand 1.49787 -55.3996
rfingers 7.12502
rthumb -152.976 1896.51
lclavicle -2.38542e-014 -1.20861e-013
lhumerus -61.3163 -8.42214 94.6733
lradius 35.9626
lwrist -25.2977
lhand -1.96007 -31.828
lfingers 7.12502
lthumb 23.7117 -3.27065
rfemur -10.5764 13.5962 0.665248
rtibia 39.3906
rfoot -25.8001 -12.8731
rtoes -16.91
lfemur -3.09173 13.0391 -29.6667
ltibia 37.6696
lfoot -34.1332 16.8155
ltoes -32.0055
2531
root 5.83351 14.4646 39.9531 -186.518 22.6661 534.779
lowerback 6.1192 -0.742443 5.65544
upperback -1.77468 0.139574 5.74445
thorax -5.32389 0.144189 2.80019
lowerneck -1.54245 9.34266 10.866
upperneck 9.20275 14.487 -16.3337
head 4.98875 7.17485 -5.94276
rclavicle 2.34566e-014 -2.8625e-014
rhumerus -24.4346 12.9271 -74.999
rradius 30.1753
rwrist 37.4764
rhand 1.73511 -56.506
rfingers 7.12502
rthumb -152.749 1895.44
lclavicle 2.34566e-014 -2.8625e-014
lhumerus -62.2046 -8.41079 94.7938
lradius 36.2757
lwrist -24.8769
lhand -1.93968 -31.6246
lfingers 7.12502
lthumb 23.7312 -3.06983
rfemur -10.7236 13.588 0.878262
rtibia 39.4759
rfoot -25.8733 -13.218
rtoes -16.4318
lfemur -2.93093 13.0702 -29.5381
ltibia 37.3182
lfoot -34.0591 16.7741
ltoes -31.3509
2532
root 5.86855 14.4715 39.9599 -186.521 22.4793 534.846
lowerback 6.02632 -0.552504 5.90168
upperback -1.89279 0.436594 5.83376
thorax -5.39998 0.290038 2.72602
lowerneck -1.74502 9.20045 10.5084
upperneck 9.48893 14.3232 -16.1275
head 5.04476 7.08141 -5.82454
rclavicle 1.98785e-014 -1.59028e-014
rhumerus -23.9321 15.0777 -75.2466
rradius 31.0047
rwrist 35.0687
rhand 2.48108 -56.6411
rfingers 7.12502
rthumb -152.035 1895.42
lclavicle 1.98785e-014 -1.59028e-014
lhumerus -63.2367 -7.72972 94.2804
lradius 36.6062
lwrist -25.0769
lhand -1.54396 -31.9324
lfingers 7.12502
lthumb 24.1107 -3.42741
rfemur -10.5864 13.633 1.19484
rtibia 39.5556
rfoot -26.3377 -13.4434
rtoes -15.5867
lfemur -2.66642 13.2367 -29.2294
ltibia 36.8545
lfoot -33.657 16.4653
ltoes -31.4941
2533
root 5.90115 14.4859 39.9652 -186.493 22.0556 534.66
lowerback 5.9719 -0.380781 5.93121
upperback -2.11596 0.679874 5.78549
thorax -5.60525 0.40376 2.63609
lowerneck -2.03096 9.00878 10.2259
upperneck 9.75483 14.0816 -15.967
head 5.1082 6.94574 -5.73635
rclavicle 4.57205e-014 -1.68569e-013
rhumerus -23.6369 17.1872 -75.5958
rradius 31.5496
rwrist 34.2637
rhand 2.76691 -58.3992
rfingers 7.12502
rthumb -151.762 1893.71
lclavicle 4.57205e-014 -1.68569e-013
lhumerus -63.8174 -7.59026 93.8788
lradius 36.5409
lwrist -25.026
lhand -1.41345 -32.2175
lfingers 7.12502
lthumb 24.2359 -3.72911
rfemur -10.4788 13.4884 1.17708
rtibia 39.5952
rfoot -26.679 -13.4575
rtoes -15.0619
lfemur -2.57093 12.7853 -29.3684
ltibia 36.4435
lfoot -33.3673 16.4678
ltoes -31.8336
2534
root 5.95712 14.5059 39.9753 -186.289 23.8352 534.173
lowerback 5.77212 0.566538 5.33991
upperback -2.25776 1.8796 5.80919
thorax -5.65895 1.01108 2.86527
lowerneck -2.07354 8.8211 9.81832
upperneck 9.79215 13.8123 -15.6859
head 5.04056 6.81075 -5.60719
rclavicle 3.69739e-014 2.54444e-014
rhumerus -23.0725 18.0518 -75.5898
rradius 32.098
rwrist 32.7881
rhand 4.0543 -59.2377
rfingers 7.12502
rthumb -150.532 1893.08
lclavicle 3.69739e-014 2.54444e-014
lhumerus -64.402 -7.4877 93.4097
lradius 36.6027
lwrist -24.9577
lhand -1.14412 -32.1362
lfingers 7.12502
lthumb 24.4941 -3.68253
rfemur -11.8654 14.4611 0.774351
rtibia 39.7134
rfoot -26.1608 -12.9765
rtoes -14.9922
lfemur -2.75081 14.3748 -29.5146
ltibia 35.9776
lfoot -33.4661 16.3285
ltoes -31.7056
2535
root 5.99001 14.5165 39.9748 -186.768 22.6284 534.128
lowerback 5.86487 0.416238 5.7937
upperback -2.25288 1.71717 5.68357
thorax -5.69032 0.911009 2.49576
lowerneck -1.87571 8.60222 9.39805
upperneck 9.47261 13.4738 -15.5035
head 4.82286 6.65609 -5.52813
rclavicle -4.73108e-014 1.01778e-013
rhumerus -22.3419 18.7159 -75.5099
rradius 32.3797
rwrist 31.8217
rhand 4.94337 -59.4233
rfingers 7.12502
rthumb -149.684 1893.05
lclavicle -4.73108e-014 1.01778e-013
lhumerus -64.6488 -7.17666 92.7534
lradius 36.4963
lwrist -24.9877
lhand -0.887328 -31.8733
lfingers 7.12502
lthumb 24.7402 -3.45312
rfemur -10.7105 13.6851 1.01616
rtibia 39.7724
rfoot -26.2381 -13.3604
rtoes -14.8143
lfemur -1.91448 13.3829 -29.4197
ltibia 35.5006
lfoot -33.205 16.2444
ltoes -31.8561
2536
root 6.02848 14.5429 39.9931 -186.34 22.946 534.028
lowerback 5.44589 0.842819 5.77174
upperback -2.413 2.26862 5.71997
thorax -5.62424 1.18877 2.49509
lowerneck -1.70682 8.43602 8.8441
upperneck 9.16817 13.1625 -15.0462
head 4.59392 6.51182 -5.33661
rclavicle 3.37934e-014 -3.49861e-014
rhumerus -21.7626 20.1312 -75.6601
rradius 32.6317
rwrist 31.1103
rhand 5.07748 -61.1141
rfingers 7.12502
rthumb -149.556 1891.38
lclavicle 3.37934e-014 -3.49861e-014
lhumerus -64.807 -6.57276 91.8879
lradius 36.4341
lwrist -25.2433
lhand -0.668194 -31.7426
lfingers 7.12502
lthumb 24.9502 -3.35143
rfemur -11.5131 13.5699 0.961385
rtibia 39.8357
rfoot -26.1204 -13.204
rtoes -16.161
lfemur -2.23708 13.3596 -29.4987
ltibia 34.98
lfoot -32.9945 16.4825
ltoes -32.1217
